<?xml version="1.0" encoding="UTF-8" standalone="no"?>
<!-- Created with Inkscape (http://www.inkscape.org/) -->

<svg
   width="17.047997mm"
   height="17.048019mm"
   viewBox="0 0 17.047997 17.048019"
   version="1.1"
   id="svg5"
   inkscape:version="1.2.2 (732a01da63, 2022-12-09)"
   sodipodi:docname="AI.svg"
   xml:space="preserve"
   inkscape:export-filename="AIGreen.png"
   inkscape:export-xdpi="446.9733"
   inkscape:export-ydpi="446.9733"
   xmlns:inkscape="http://www.inkscape.org/namespaces/inkscape"
   xmlns:sodipodi="http://sodipodi.sourceforge.net/DTD/sodipodi-0.dtd"
   xmlns="http://www.w3.org/2000/svg"
   xmlns:svg="http://www.w3.org/2000/svg"><sodipodi:namedview
     id="namedview7"
     pagecolor="#ffffff"
     bordercolor="#666666"
     borderopacity="1.0"
     inkscape:showpageshadow="2"
     inkscape:pageopacity="0.0"
     inkscape:pagecheckerboard="0"
     inkscape:deskcolor="#d1d1d1"
     inkscape:document-units="mm"
     showgrid="false"
     inkscape:zoom="0.76880612"
     inkscape:cx="187.95376"
     inkscape:cy="832.45956"
     inkscape:window-width="1920"
     inkscape:window-height="1017"
     inkscape:window-x="-8"
     inkscape:window-y="-8"
     inkscape:window-maximized="1"
     inkscape:current-layer="layer1" /><defs
     id="defs2" /><g
     inkscape:label="Layer 1"
     inkscape:groupmode="layer"
     id="layer1"
     transform="translate(-108.927,-253.659)"><g
       id="g8036-5-6"
       transform="matrix(0.26458333,0,0,0.26458333,99.566835,241.86403)"><path
         id="path2395-0-2"
         style="fill:#000000;stroke-width:0.868492"
         d="m 73.389443,53.704276 c 1.147555,0 2.928173,1.536908 2.928173,3.445376 l 0.06741,20.092321 c 0,1.908467 -1.848025,3.186479 -2.99558,3.186479 -1.147555,0 -2.99491,-2.313592 -2.99491,-4.22206 l -0.07595,-19.05674 c 0,-1.908468 1.923309,-3.445376 3.070864,-3.445376 z"
         inkscape:export-ydpi="90"
         sodipodi:nodetypes="cccsccc"
         inkscape:export-filename="/home/mgsmith/Desktop/warning.png"
         inkscape:export-xdpi="90" /><path
         id="path2395-4-6-4"
         style="fill:#000000;stroke-width:0.739326"
         d="m 45.141565,70.641444 c 0,-1.14755 1.11375,-2.92817 2.49676,-2.92817 l 14.560298,-0.0674 c 1.383011,0 2.309146,1.84803 2.309146,2.99558 0,1.14756 -1.676589,2.99491 -3.059599,2.99491 l -13.809845,0.076 c -1.38301,0 -2.49676,-1.92331 -2.49676,-3.07086 z"
         inkscape:export-ydpi="90"
         sodipodi:nodetypes="cccsccc"
         inkscape:export-filename="/home/mgsmith/Desktop/warning.png"
         inkscape:export-xdpi="90" /><path
         id="path2395-2-1-8"
         style="fill:#000000;stroke-width:0.919313"
         d="m 56.390903,53.57853 c 1.012321,0.540453 1.772088,2.898158 0.765006,4.784518 L 46.612837,78.254365 c -1.007081,1.88636 -3.311719,2.27922 -4.32404,1.738767 -1.012321,-0.540454 -1.42111,-3.697276 -0.41403,-5.583636 l 9.989072,-18.871755 c 1.007082,-1.88636 3.51475,-2.499661 4.52707,-1.959207 z"
         inkscape:export-ydpi="90"
         sodipodi:nodetypes="cccsccc"
         inkscape:export-filename="/home/mgsmith/Desktop/warning.png"
         inkscape:export-xdpi="90" /><path
         id="path2395-2-4-7-7"
         style="fill:#000000;stroke-width:0.919313"
         d="m 54.264568,53.545723 c -1.012321,0.540453 -1.772088,2.898158 -0.765006,4.784518 l 10.543072,19.891317 c 1.007081,1.88636 3.311719,2.27922 4.32404,1.738767 1.012321,-0.540454 1.42111,-3.697276 0.41403,-5.583636 L 58.791632,55.504934 c -1.007082,-1.88636 -3.51475,-2.499661 -4.52707,-1.959207 z"
         inkscape:export-ydpi="90"
         sodipodi:nodetypes="cccsccc"
         inkscape:export-filename="/home/mgsmith/Desktop/warning.png"
         inkscape:export-xdpi="90" /></g><path
       style="fill:none;stroke:#00b615;stroke-width:1.465;stroke-linecap:round;stroke-linejoin:round;stroke-dasharray:none;stroke-opacity:1"
       d="m 115.6538,266.67158 c 0.77122,0.0885 1.82959,0.24645 3.03997,1.89514 1.45727,-4.4349 2.72854,-5.93021 4.93469,-7.40065"
       id="path8160"
       sodipodi:nodetypes="ccc" /><rect
       style="fill:none;fill-opacity:1;stroke:#000000;stroke-width:0.843039;stroke-linecap:round;stroke-linejoin:round;stroke-dasharray:none;stroke-opacity:1"
       id="rect8214"
       width="15.50508"
       height="15.50508"
       x="109.64843"
       y="254.38062" /></g></svg>
