<?xml version="1.0" encoding="UTF-8" standalone="no"?>
<!-- Created with Inkscape (http://www.inkscape.org/) -->

<svg
   width="17.079735mm"
   height="17.104004mm"
   viewBox="0 0 17.079735 17.104004"
   version="1.1"
   id="svg5"
   inkscape:version="1.2.2 (732a01da63, 2022-12-09)"
   sodipodi:docname="AI.svg"
   xml:space="preserve"
   xmlns:inkscape="http://www.inkscape.org/namespaces/inkscape"
   xmlns:sodipodi="http://sodipodi.sourceforge.net/DTD/sodipodi-0.dtd"
   xmlns="http://www.w3.org/2000/svg"
   xmlns:svg="http://www.w3.org/2000/svg"><sodipodi:namedview
     id="namedview7"
     pagecolor="#ffffff"
     bordercolor="#666666"
     borderopacity="1.0"
     inkscape:showpageshadow="2"
     inkscape:pageopacity="0.0"
     inkscape:pagecheckerboard="0"
     inkscape:deskcolor="#d1d1d1"
     inkscape:document-units="mm"
     showgrid="false"
     inkscape:zoom="0.76880612"
     inkscape:cx="187.95376"
     inkscape:cy="832.45956"
     inkscape:window-width="1920"
     inkscape:window-height="1017"
     inkscape:window-x="-8"
     inkscape:window-y="-8"
     inkscape:window-maximized="1"
     inkscape:current-layer="layer1" /><defs
     id="defs2" /><g
     inkscape:label="Layer 1"
     inkscape:groupmode="layer"
     id="layer1"
     transform="translate(-87.123575,-253.78201)"><g
       id="layer1-1"
       inkscape:label="Layer 1"
       transform="matrix(0.26458333,0,0,0.26458333,79.305582,247.21978)"><g
         id="g2387"
         style="fill:#ffd42a"
         inkscape:export-ydpi="90"
         inkscape:export-filename="/home/mgsmith/Desktop/warning.png"
         transform="matrix(0.45525398,0,0,0.46176357,26.283181,23.006572)"
         inkscape:export-xdpi="90"><path
           id="path2389"
           d="m 12.473,121.08 c -4.5281436,6.92667 -0.303543,12.7035 5.038,12.84 h 121.32 c 6.74726,-0.15038 8.40351,-7.95429 4.96,-13.45 L 83.707,12.69 C 81.052,9.9966501 76.49555,9.7442 74.093,12.694 53.536799,48.809885 33.033906,84.981231 12.473,121.08 Z"
           style="fill:#ffd42a;stroke:#000000;stroke-width:6.83022;stroke-dasharray:none"
           sodipodi:nodetypes="ccccccc" /></g><g
         id="g8036"><path
           id="path2395"
           style="fill:#000000;stroke-width:0.868492"
           d="m 73.389443,53.704276 c 1.147555,0 2.928173,1.536908 2.928173,3.445376 l 0.06741,20.092321 c 0,1.908467 -1.848025,3.186479 -2.99558,3.186479 -1.147555,0 -2.99491,-2.313592 -2.99491,-4.22206 l -0.07595,-19.05674 c 0,-1.908468 1.923309,-3.445376 3.070864,-3.445376 z"
           inkscape:export-ydpi="90"
           sodipodi:nodetypes="cccsccc"
           inkscape:export-filename="/home/mgsmith/Desktop/warning.png"
           inkscape:export-xdpi="90" /><path
           id="path2395-4"
           style="fill:#000000;stroke-width:0.739326"
           d="m 45.141565,70.641444 c 0,-1.14755 1.11375,-2.92817 2.49676,-2.92817 l 14.560298,-0.0674 c 1.383011,0 2.309146,1.84803 2.309146,2.99558 0,1.14756 -1.676589,2.99491 -3.059599,2.99491 l -13.809845,0.076 c -1.38301,0 -2.49676,-1.92331 -2.49676,-3.07086 z"
           inkscape:export-ydpi="90"
           sodipodi:nodetypes="cccsccc"
           inkscape:export-filename="/home/mgsmith/Desktop/warning.png"
           inkscape:export-xdpi="90" /><path
           id="path2395-2"
           style="fill:#000000;stroke-width:0.919313"
           d="m 56.390903,53.57853 c 1.012321,0.540453 1.772088,2.898158 0.765006,4.784518 L 46.612837,78.254365 c -1.007081,1.88636 -3.311719,2.27922 -4.32404,1.738767 -1.012321,-0.540454 -1.42111,-3.697276 -0.41403,-5.583636 l 9.989072,-18.871755 c 1.007082,-1.88636 3.51475,-2.499661 4.52707,-1.959207 z"
           inkscape:export-ydpi="90"
           sodipodi:nodetypes="cccsccc"
           inkscape:export-filename="/home/mgsmith/Desktop/warning.png"
           inkscape:export-xdpi="90" /><path
           id="path2395-2-4"
           style="fill:#000000;stroke-width:0.919313"
           d="m 54.264568,53.545723 c -1.012321,0.540453 -1.772088,2.898158 -0.765006,4.784518 l 10.543072,19.891317 c 1.007081,1.88636 3.311719,2.27922 4.32404,1.738767 1.012321,-0.540454 1.42111,-3.697276 0.41403,-5.583636 L 58.791632,55.504934 c -1.007082,-1.88636 -3.51475,-2.499661 -4.52707,-1.959207 z"
           inkscape:export-ydpi="90"
           sodipodi:nodetypes="cccsccc"
           inkscape:export-filename="/home/mgsmith/Desktop/warning.png"
           inkscape:export-xdpi="90" /></g></g></g></svg>
